<svg version="1.1" id="Layer_1" xmlns="http://www.w3.org/2000/svg" xmlns:xlink="http://www.w3.org/1999/xlink" x="0px" y="0px"
	 width="100%" viewBox="0 0 1024 1024" enable-background="new 0 0 1024 1024" xml:space="preserve">
<path fill="#000000" opacity="1.000000" stroke="none" 
	d="
M551.122803,287.337097 
	C553.893921,305.959869 546.294189,319.261322 531.669006,329.436646 
	C517.192078,339.508850 502.909241,349.859650 488.499115,360.028595 
	C486.943939,361.126068 485.287231,363.012390 483.168427,361.840302 
	C481.060974,360.674469 481.827942,358.258453 481.820679,356.356995 
	C481.740509,335.382904 481.656586,314.408325 481.721161,293.434326 
	C481.776367,275.500732 494.123413,260.863861 510.722076,258.790222 
	C528.713562,256.542572 545.894226,267.892639 550.436951,285.021057 
	C550.607239,285.663025 550.837769,286.288971 551.122803,287.337097 
z"/>
<path fill="#000000" opacity="1.000000" stroke="none" 
	d="
M436.292328,381.725433 
	C428.225708,376.362152 420.427521,371.205414 413.902802,364.471466 
	C404.893036,355.172791 402.750000,339.731079 408.564423,327.698120 
	C414.615692,315.174988 427.749420,307.562531 441.091492,308.845032 
	C455.391388,310.219574 467.181549,319.497955 470.599396,332.079773 
	C470.860229,333.040039 471.219391,334.019043 471.234680,334.994019 
	C471.589233,357.626282 472.223785,380.259583 471.184387,402.890228 
	C471.163849,403.337250 470.833496,403.769989 470.254364,405.139557 
	C458.881531,397.299988 447.734467,389.615997 436.292328,381.725433 
z"/>
<path fill="#000000" opacity="1.000000" stroke="none" 
	d="
M299.666412,529.988647 
	C299.668396,507.830383 299.664673,486.170563 299.675537,464.510712 
	C299.678925,457.763153 299.727875,458.130249 306.163788,457.589142 
	C311.901978,457.106689 315.802551,459.066803 319.449554,463.444733 
	C330.961060,477.263306 342.819641,490.792877 354.558777,504.421478 
	C356.169159,506.291077 357.863922,508.088013 359.517212,509.915924 
	C361.498352,508.662170 360.712891,507.025024 360.716949,505.685577 
	C360.759979,491.523651 360.844788,477.359955 360.649261,463.200439 
	C360.592804,459.111542 361.890961,457.585144 366.074188,457.678070 
	C381.128601,458.012421 379.003204,455.802551 379.063904,470.125885 
	C379.156403,491.951447 379.126740,513.777893 379.027161,535.603394 
	C379.015228,538.210388 380.292084,542.323608 376.600769,542.801636 
	C372.110962,543.383118 366.766144,545.411560 362.960205,541.050842 
	C349.379883,525.490967 335.973755,509.779144 322.493164,494.132141 
	C321.228699,492.664490 319.904266,491.248535 317.369385,490.147095 
	C317.369385,505.873169 317.214722,521.601746 317.467987,537.323730 
	C317.539612,541.769836 316.534973,543.506409 311.740967,543.352173 
	C297.597351,542.897034 299.891174,545.165100 299.666412,529.988647 
z"/>
<path fill="#000000" opacity="1.000000" stroke="none" 
	d="
M494.673645,375.650513 
	C511.445679,363.535217 527.905396,351.587982 545.510254,341.482941 
	C547.727173,344.187561 547.092285,346.433167 547.093689,348.510956 
	C547.105347,365.823181 547.009155,383.135437 547.017517,400.447662 
	C547.025085,416.186035 537.943909,428.461182 523.018066,432.732697 
	C510.337830,436.361542 495.086639,430.534302 488.046570,419.370575 
	C479.836426,406.351440 481.249939,389.974854 491.573547,378.701294 
	C492.471252,377.720947 493.459778,376.823761 494.673645,375.650513 
z"/>
<path fill="#000000" opacity="1.000000" stroke="none" 
	d="
M576.341187,510.959106 
	C570.572815,530.251404 556.441345,541.148132 536.847717,542.484436 
	C525.369446,543.267273 513.892273,542.767517 502.432068,543.315308 
	C497.972046,543.528503 496.741028,541.771484 496.759460,537.502625 
	C496.865723,512.874084 496.837982,488.243530 496.600952,463.616089 
	C496.556671,459.013214 498.021515,457.435974 502.587891,457.659424 
	C515.366272,458.284760 528.216980,456.667786 540.953613,458.680054 
	C566.524963,462.719940 581.962524,485.344696 576.341187,510.959106 
M551.310913,481.191711 
	C550.292664,480.337128 549.333923,479.397034 548.246887,478.641327 
	C538.769226,472.052551 527.954712,473.289734 517.348328,473.523712 
	C515.403503,473.566589 515.348389,475.451355 515.347961,476.986969 
	C515.343811,492.305084 515.365967,507.623199 515.334656,522.941223 
	C515.329773,525.322693 516.062988,526.779541 518.729187,526.729980 
	C524.220520,526.627869 529.754883,526.988770 535.193054,526.414795 
	C540.443604,525.860718 545.638916,524.729309 549.835510,520.817688 
	C560.986023,510.424316 561.916016,493.585571 551.310913,481.191711 
z"/>
<path fill="#000000" opacity="1.000000" stroke="none" 
	d="
M745.207520,498.916809 
	C742.100098,505.266968 736.881653,508.683533 730.398254,511.164368 
	C737.015442,521.776611 743.304016,531.861938 750.314331,543.104797 
	C743.065613,543.291748 737.040405,543.633667 731.029724,542.794067 
	C729.081787,542.522034 728.401917,540.395874 727.444397,538.859131 
	C722.687500,531.224060 717.964478,523.567932 713.188477,515.944885 
	C711.250000,512.850952 700.244568,510.737640 697.331116,512.862244 
	C695.886719,513.915588 696.184937,515.545044 696.178162,517.000732 
	C696.144653,524.166382 696.094055,531.333496 696.209839,538.497559 
	C696.263062,541.790039 695.183228,543.404480 691.609680,543.319397 
	C674.893066,542.921326 677.867737,545.787598 677.729431,529.911316 
	C677.537842,507.915375 677.781982,485.915466 677.566772,463.919922 
	C677.520203,459.157654 678.941162,457.407990 683.797729,457.655762 
	C696.593994,458.308594 709.446594,456.809021 722.226624,458.575775 
	C743.123108,461.464600 753.174561,478.829712 745.207520,498.916809 
M717.160034,497.869720 
	C718.793030,497.635406 720.504395,497.636780 722.044983,497.124603 
	C727.711121,495.240967 730.404480,490.385193 729.710693,483.660645 
	C729.151184,478.236938 724.252808,473.917725 717.351379,473.467560 
	C711.561523,473.089935 705.728455,473.422119 699.917786,473.295197 
	C696.743530,473.225830 695.947937,474.882965 696.018616,477.660675 
	C696.153931,482.973572 696.252014,488.290894 696.184753,493.604095 
	C696.147400,496.554626 697.272400,497.802277 700.289551,497.751678 
	C705.602112,497.662567 710.918701,497.820374 717.160034,497.869720 
z"/>
<path fill="#000000" opacity="1.000000" stroke="none" 
	d="
M620.160217,492.663208 
	C629.135193,492.661926 637.633911,492.796265 646.125305,492.603851 
	C649.892273,492.518463 651.506836,493.588043 651.398621,497.658417 
	C651.097595,508.982788 652.337952,507.247650 641.885986,507.363373 
	C633.890930,507.451874 625.890442,507.524414 617.899597,507.321747 
	C614.143433,507.226501 612.796021,508.695068 612.991089,512.310364 
	C613.161255,515.465210 613.115234,518.644897 612.943848,521.801636 
	C612.712158,526.067688 614.486206,527.735840 618.829407,527.659119 
	C630.309082,527.456360 641.798828,527.753479 653.275146,527.470703 
	C657.337585,527.370544 658.459106,528.727417 658.352966,532.589661 
	C658.011597,545.010376 659.517090,543.157532 647.659424,543.215271 
	C632.000977,543.291565 616.340210,543.112732 600.683838,543.310425 
	C596.220764,543.366821 594.570801,542.060181 594.607361,537.369202 
	C594.799500,512.716309 594.772217,488.060547 594.604065,463.407257 
	C594.574402,459.049530 595.961365,457.606354 600.341858,457.657990 
	C617.164429,457.856323 633.992188,457.848511 650.814880,457.650940 
	C655.304749,457.598236 657.099670,458.962494 656.957764,463.629059 
	C656.664429,473.271027 656.844482,473.274170 647.035095,473.273285 
	C637.040039,473.272369 627.044128,473.353882 617.050537,473.234009 
	C613.860229,473.195709 612.451782,474.153320 612.826904,477.563721 
	C613.134888,480.363434 612.906555,483.220367 612.946899,486.051514 
	C613.040283,492.599701 613.047974,492.599579 620.160217,492.663208 
z"/>
<path fill="#000000" opacity="1.000000" stroke="none" 
	d="
M398.060242,527.202576 
	C407.917236,505.464294 417.668640,484.097656 427.270416,462.663971 
	C428.915100,458.992645 431.235687,457.869995 435.268738,457.494019 
	C442.479370,456.821869 446.113129,459.350189 449.073029,466.103119 
	C459.434387,489.742157 470.577820,513.038025 481.374298,536.487244 
	C482.250610,538.390564 483.725677,540.201538 482.964813,543.102722 
	C477.813965,543.102722 472.544220,543.164185 467.277130,543.073120 
	C465.101196,543.035583 464.250214,541.228516 463.475952,539.545837 
	C461.665710,535.611755 459.812317,531.693359 458.153992,527.694946 
	C457.116943,525.194519 455.499634,524.202393 452.783813,524.236389 
	C442.618652,524.363647 432.450378,524.410706 422.285492,524.295288 
	C419.308472,524.261475 417.694092,525.445251 416.648804,528.114197 
	C415.070618,532.143921 413.229340,536.069946 411.590790,540.077148 
	C410.995300,541.533569 410.400574,542.980652 408.632446,543.049316 
	C403.353363,543.254150 398.061462,543.534424 392.316040,542.817444 
	C393.157532,537.007446 396.417236,532.581787 398.060242,527.202576 
M448.841125,507.687683 
	C445.600311,498.535614 441.387817,489.823883 436.860504,479.897491 
	C432.857880,490.065704 429.318756,499.056427 425.490082,508.782715 
	C433.804382,508.811676 441.176056,509.542114 448.841125,507.687683 
z"/>
<path fill="#000000" opacity="1.000000" stroke="none" 
	d="
M509.328552,612.513062 
	C507.601440,613.761658 508.282379,615.513672 508.266083,617.070496 
	C508.168579,626.392700 508.126495,635.716125 508.165802,645.038757 
	C508.176880,647.669067 507.331482,649.125732 504.473816,649.124634 
	C501.811096,649.123657 499.846283,648.532959 499.843903,645.342712 
	C499.832367,630.026184 499.731659,614.709229 499.832489,599.393555 
	C499.857056,595.665222 504.235840,594.166992 507.556641,596.794006 
	C509.345917,598.209534 510.761688,600.162537 512.134094,602.028809 
	C519.904724,612.596191 527.506348,623.290955 536.757568,634.421814 
	C536.757568,628.537048 536.747437,623.806580 536.760071,619.076050 
	C536.777039,612.749817 536.820801,606.423584 536.834167,600.097351 
	C536.839355,597.622253 537.535095,595.863159 540.491150,595.919373 
	C543.128540,595.969543 545.142578,596.631470 545.144897,599.775024 
	C545.156311,615.091248 545.166748,630.407471 545.159973,645.723694 
	C545.159302,647.327759 544.735596,648.776184 542.844910,649.028564 
	C540.110168,649.393616 537.543030,649.233887 535.676636,646.703796 
	C532.318054,642.151184 528.913330,637.631592 525.470581,633.142151 
	C520.205872,626.276733 514.892395,619.448608 509.328552,612.513062 
z"/>
<path fill="#000000" opacity="1.000000" stroke="none" 
	d="
M698.096680,633.858398 
	C692.344238,626.287354 686.811096,618.999512 681.277954,611.711670 
	C680.925171,611.734497 680.572327,611.757385 680.219543,611.780212 
	C680.219543,613.441040 680.229858,615.101868 680.217773,616.762634 
	C680.149902,626.095154 680.007080,635.427856 680.043335,644.760010 
	C680.055725,647.955383 678.807617,649.285583 675.592529,649.216248 
	C672.422424,649.147888 671.721863,647.434570 671.732056,644.697266 
	C671.786743,630.031250 671.752930,615.364868 671.790039,600.698792 
	C671.794495,598.935181 671.308838,596.623352 673.646912,596.058716 
	C676.008667,595.488220 678.642822,594.994324 680.520752,597.473206 
	C684.041443,602.120667 687.574646,606.758728 691.105164,611.398743 
	C696.713501,618.769592 702.323914,626.138855 709.067383,633.222229 
	C709.067383,626.137695 709.001648,619.052307 709.091736,611.968933 
	C709.146729,607.643616 709.507690,603.322693 709.604248,598.997009 
	C709.665100,596.269470 711.236511,595.720398 713.534912,595.721313 
	C715.942993,595.722290 717.278076,596.578125 717.271423,599.199585 
	C717.231934,614.698792 717.247925,630.198181 717.230835,645.697510 
	C717.229126,647.250000 717.058411,648.834656 715.107544,649.118896 
	C712.402222,649.513000 709.809998,649.530518 707.916931,646.933838 
	C704.776428,642.626221 701.522278,638.401306 698.096680,633.858398 
z"/>
<path fill="#000000" opacity="1.000000" stroke="none" 
	d="
M369.699768,623.855042 
	C369.740662,611.249390 374.780182,602.298584 386.221313,597.333008 
	C397.990234,592.225159 408.409424,594.761902 417.634094,603.020386 
	C425.391022,609.964783 427.619568,623.968201 423.035980,634.584290 
	C418.952698,644.041565 407.751770,650.589111 397.027771,649.787476 
	C381.679291,648.640137 371.447296,639.097595 369.699768,623.855042 
M379.439392,630.773193 
	C384.310089,640.147400 393.173737,644.591675 402.397278,642.284424 
	C411.421326,640.027039 417.558563,632.251831 417.557159,623.078369 
	C417.555725,613.601013 411.163208,605.109802 402.089050,602.865601 
	C394.898163,601.087158 388.546295,603.009216 383.368439,608.215637 
	C377.142029,614.476501 377.096405,622.087646 379.439392,630.773193 
z"/>
<path fill="#000000" opacity="1.000000" stroke="none" 
	d="
M658.206787,642.952454 
	C658.940063,644.827454 660.132202,646.148682 659.896484,647.928589 
	C654.496155,650.509583 652.439087,649.840088 650.346558,644.626343 
	C646.435608,634.881409 647.487244,636.541382 637.727905,636.343872 
	C636.064209,636.310181 634.372009,636.526978 632.739624,636.296936 
	C624.301331,635.108276 617.769897,636.635620 615.679565,646.456055 
	C614.902649,650.106201 611.140259,649.788696 608.571228,648.853210 
	C605.168030,647.613892 607.712769,645.296936 608.473694,643.561890 
	C614.753296,629.242493 621.141479,614.970642 627.387512,600.636780 
	C628.555786,597.955444 629.348022,595.627930 633.121887,595.568359 
	C637.001526,595.507202 638.241028,597.691467 639.513733,600.605408 
	C645.637756,614.627380 651.866150,628.603760 658.206787,642.952454 
M636.363281,613.106140 
	C635.521606,611.234070 635.346008,608.989319 633.354980,607.477234 
	C629.730286,613.373657 627.589844,619.694397 624.933716,625.774292 
	C624.047180,627.803406 624.763184,629.233887 626.846008,629.369629 
	C631.911499,629.699707 637.016663,630.138123 642.952515,628.942810 
	C640.683472,623.501404 638.660645,618.650330 636.363281,613.106140 
z"/>
<path fill="#000000" opacity="1.000000" stroke="none" 
	d="
M206.256531,638.040344 
	C204.673859,641.216125 203.342850,644.085083 201.888580,646.890259 
	C200.411148,649.739929 197.744232,649.703674 195.383469,648.742920 
	C192.421783,647.537720 194.376648,645.316040 195.097229,643.704773 
	C201.555038,629.264648 208.101761,614.864197 214.643570,600.461792 
	C215.815125,597.882507 216.817535,595.400146 220.623840,595.586426 
	C224.257568,595.764282 225.327774,598.001099 226.487411,600.711548 
	C232.643265,615.099792 238.884094,629.451599 245.059723,643.831421 
	C245.630768,645.161072 246.755371,646.372925 246.275604,648.014709 
	C240.675110,650.308472 238.874725,649.608643 236.767365,644.334656 
	C233.570999,636.335327 233.571014,636.334412 225.019989,636.324219 
	C220.521484,636.318848 216.022598,636.281677 211.524689,636.332092 
	C209.741272,636.352112 207.789795,635.950073 206.256531,638.040344 
M221.713486,609.246765 
	C221.239777,608.453979 221.178329,607.244080 219.382553,607.361816 
	C216.562912,614.166565 213.682648,621.117615 210.534988,628.714050 
	C217.373138,628.946899 223.214706,629.276672 229.530823,628.385010 
	C226.832504,621.796448 224.391190,615.835449 221.713486,609.246765 
z"/>
<path fill="#000000" opacity="1.000000" stroke="none" 
	d="
M440.457214,596.576172 
	C447.410614,595.139221 447.664337,595.561035 447.705231,601.765137 
	C447.770844,611.726624 446.602875,621.703430 448.082428,631.654541 
	C449.106720,638.543823 454.205383,642.896240 461.170441,642.620056 
	C468.820648,642.316772 474.395996,637.549316 474.568939,630.563354 
	C474.815979,620.583008 474.681824,610.592590 474.659180,600.606628 
	C474.652924,597.848206 474.958313,595.604431 478.599335,595.731201 
	C480.986847,595.814331 482.364716,596.536621 482.350098,599.177429 
	C482.287506,610.494080 482.732025,621.834961 482.127502,633.120728 
	C481.603363,642.906372 470.789856,650.664368 460.121765,649.864685 
	C446.667816,648.856262 439.609863,641.374084 439.705139,627.824158 
	C439.777588,617.523376 439.123962,607.208313 440.457214,596.576172 
z"/>
<path fill="#000000" opacity="1.000000" stroke="none" 
	d="
M741.324097,630.393311 
	C747.668579,642.708130 761.648071,646.725708 772.168579,638.883423 
	C776.823792,635.413269 779.085693,637.182190 781.846008,640.498535 
	C773.767090,651.734741 753.077881,653.154358 741.316833,643.418640 
	C729.126770,633.327820 728.113281,615.287292 739.070251,603.429443 
	C749.603455,592.030212 769.826294,592.073853 780.936096,603.712158 
	C778.694580,606.650574 776.969116,609.584106 772.333130,606.357422 
	C764.370605,600.815247 754.755005,600.909119 748.027283,605.932190 
	C740.421875,611.610535 738.148804,619.607117 741.324097,630.393311 
z"/>
<path fill="#000000" opacity="1.000000" stroke="none" 
	d="
M329.700867,640.478149 
	C338.303284,644.213867 346.011688,643.478088 352.746063,637.307068 
	C355.849884,634.462891 357.524750,636.852783 359.360687,638.622742 
	C361.605255,640.786743 359.666412,642.118958 358.108398,643.413879 
	C341.421326,657.283630 315.620056,648.366882 311.430511,627.285461 
	C307.378754,606.897400 327.223114,589.829163 347.457642,596.317749 
	C350.952728,597.438538 354.298248,598.871521 357.229828,601.181152 
	C358.740723,602.371521 360.521851,603.525696 358.749542,605.530029 
	C357.272705,607.200195 355.531250,609.221741 352.835205,607.213013 
	C349.174377,604.485596 345.251129,602.474976 340.541840,602.279846 
	C330.948181,601.882446 322.869507,607.157715 320.072388,615.756836 
	C316.983337,625.253418 320.581726,634.779541 329.700867,640.478149 
z"/>
<path fill="#000000" opacity="1.000000" stroke="none" 
	d="
M269.138855,606.079468 
	C259.226990,613.427246 260.037842,628.207825 265.746826,635.584839 
	C272.399841,644.181519 284.558228,645.050171 294.421661,637.812378 
	C298.588806,634.754395 300.067169,638.891235 302.616119,640.328674 
	C298.996643,647.448242 283.822327,652.043152 272.568298,648.464233 
	C261.090820,644.814270 253.767014,635.306702 253.628052,623.654724 
	C253.462860,609.803711 259.813843,600.549316 272.430481,596.256409 
	C282.829987,592.717896 296.115051,596.153137 302.024872,604.059509 
	C299.567078,607.651550 297.241547,609.052551 292.824005,605.921631 
	C285.297577,600.587219 277.246490,600.878845 269.138855,606.079468 
z"/>
<path fill="#000000" opacity="1.000000" stroke="none" 
	d="
M521.022339,718.952454 
	C524.622253,725.182007 530.801697,727.617188 537.723572,731.163330 
	C527.510742,736.092590 519.158203,741.347961 515.430542,752.339661 
	C511.855072,741.256714 502.943085,736.391357 493.400635,731.026184 
	C503.560150,726.485291 511.671234,720.323547 514.972168,709.221191 
	C518.699524,712.023254 518.648376,716.008850 521.022339,718.952454 
z"/>
<path fill="#000000" opacity="1.000000" stroke="none" 
	d="
M580.861267,649.097778 
	C575.825623,649.865784 574.831421,647.669128 574.927673,643.415222 
	C575.190979,631.779968 574.907715,620.133423 575.041687,608.493591 
	C575.085510,604.680237 573.813293,602.994141 569.836304,603.267700 
	C566.362305,603.506653 562.855591,603.247681 559.363464,603.253540 
	C556.857361,603.257690 555.798828,602.006042 555.749817,599.557861 
	C555.700867,597.118530 556.650330,595.763428 559.200500,595.766479 
	C572.172241,595.781982 585.144043,595.800659 598.115784,595.802307 
	C600.747864,595.802673 601.491455,597.230957 601.434937,599.645813 
	C601.377380,602.109314 600.423218,603.330750 597.862061,603.282104 
	C594.537415,603.218994 591.203796,603.425476 587.885742,603.268494 
	C584.388794,603.103088 583.230774,604.645630 583.265808,608.026733 
	C583.388367,619.833618 583.358948,631.642944 583.277649,643.450500 
	C583.263916,645.442627 584.142334,647.947510 580.861267,649.097778 
z"/>
<path fill="#000000" opacity="1.000000" stroke="none" 
	d="
M819.273621,610.316040 
	C821.647644,606.668030 823.805603,603.311646 825.994629,599.975586 
	C829.169495,595.136780 830.732727,594.686768 836.772827,596.861084 
	C837.023926,599.131104 835.176147,600.340454 834.113831,601.928284 
	C828.659302,610.080811 823.194885,618.226807 817.693909,626.347961 
	C816.501038,628.109009 816.314453,630.030518 816.322266,632.055725 
	C816.339050,636.380371 816.269226,640.705505 816.306702,645.029846 
	C816.328186,647.505981 815.796570,649.269409 812.742249,649.146606 
	C810.078552,649.039429 807.526550,648.182739 808.279602,645.242065 
	C812.843933,627.418640 800.639771,616.077271 792.431458,603.162170 
	C791.130127,601.114685 789.038086,599.476440 788.822693,596.427917 
	C792.921753,595.157898 796.362183,595.006714 799.016785,599.313843 
	C802.328613,604.687622 805.961060,609.866089 809.529724,615.077881 
	C810.524841,616.531189 811.153015,618.375122 813.437195,619.241272 
	C815.303711,616.384094 817.187561,613.500366 819.273621,610.316040 
z"/>
<path fill="#000000" opacity="1.000000" stroke="none" 
	d="
M743.091187,710.369873 
	C707.651917,711.613770 672.675171,710.780823 637.723511,711.523438 
	C615.245422,712.000854 592.775085,711.866211 570.301819,711.999939 
	C568.112000,712.012939 564.245300,713.168945 564.339966,709.644592 
	C564.419434,706.686646 568.104065,707.791321 570.216614,707.790833 
	C636.323792,707.774475 702.430908,707.826599 768.538025,707.908020 
	C771.133240,707.911194 773.863403,707.402710 776.290344,710.366882 
	C765.386230,710.366882 754.482056,710.366882 743.091187,710.369873 
z"/>
<path fill="#000000" opacity="1.000000" stroke="none" 
	d="
M464.156982,709.200134 
	C463.565186,713.414062 460.407471,712.002441 458.292175,711.992371 
	C438.150146,711.896545 418.009430,711.544189 397.867401,711.405823 
	C365.398682,711.182739 332.925171,711.316895 300.461884,710.793274 
	C285.314667,710.548950 270.167603,710.483582 255.021622,710.257629 
	C253.557098,710.235779 252.018631,710.531616 249.940552,709.240845 
	C252.495438,707.365417 255.112198,707.884888 257.490448,707.881165 
	C309.774963,707.799561 362.059479,707.755371 414.344025,707.717407 
	C428.997040,707.706787 443.650146,707.716187 458.302948,707.778137 
	C460.232361,707.786255 462.342499,707.208923 464.156982,709.200134 
z"/>
<path fill="#000000" opacity="1.000000" stroke="none" 
	d="
M571.212463,321.135101 
	C581.971069,313.939056 593.049500,312.233185 604.662476,317.586395 
	C625.816711,327.337921 628.500061,352.860413 609.690247,366.530426 
	C599.186340,374.164185 588.236877,381.185272 577.480713,388.471375 
	C574.034729,390.805634 570.587219,393.138947 567.098083,395.407593 
	C564.775208,396.917938 562.535339,398.664490 559.699097,399.163605 
	C557.648438,395.660522 560.469299,394.711029 562.205322,393.533813 
	C574.890442,384.931854 587.638733,376.422943 600.364441,367.880676 
	C602.577759,366.394928 604.772583,364.881531 606.986023,363.396027 
	C615.838013,357.455414 619.364868,349.042297 617.359680,338.766083 
	C615.340454,328.417816 608.193237,322.329559 598.409790,319.509094 
	C585.362244,315.747559 574.626343,320.940216 564.863098,329.082642 
	C562.322021,331.201904 559.878723,333.438416 557.794434,335.266693 
	C557.977478,331.708923 561.877686,327.366364 571.212463,321.135101 
z"/>
<path fill="#000000" opacity="1.000000" stroke="none" 
	d="
M724.000000,569.792786 
	C740.698669,569.987610 756.923401,569.268005 773.099731,570.250122 
	C773.091187,570.753174 773.082642,571.256287 773.074097,571.759399 
	C699.072693,571.759399 625.071289,571.759399 551.069824,571.759399 
	C551.052673,571.110291 551.035522,570.461243 551.018372,569.812134 
	C565.194702,569.812134 579.370972,569.819031 593.547302,569.810181 
	C608.041992,569.801147 622.536743,569.762329 637.031433,569.762756 
	C651.359497,569.763184 665.687561,569.806580 680.015625,569.812195 
	C694.510437,569.817871 709.005188,569.800415 724.000000,569.792786 
z"/>
<path fill="#000000" opacity="1.000000" stroke="none" 
	d="
M321.499512,572.068359 
	C319.776703,571.986145 318.474762,571.918579 316.502899,571.816223 
	C323.658051,569.329773 486.500885,568.912109 490.754791,571.174011 
	C490.074799,572.885437 488.546204,572.302551 487.390137,572.301575 
	C432.233521,572.252625 377.076935,572.165649 321.499512,572.068359 
z"/>
</svg>